<?xml version="1.0" standalone="no"?>
<!DOCTYPE svg PUBLIC "-//W3C//DTD SVG 20010904//EN"
 "http://www.w3.org/TR/2001/REC-SVG-20010904/DTD/svg10.dtd">
<svg version="1.0" xmlns="http://www.w3.org/2000/svg"
 width="1080.000000pt" height="1080.000000pt" viewBox="0 0 1080.000000 1080.000000"
 preserveAspectRatio="xMidYMid meet">
<metadata>
Created by potrace 1.16, written by Peter Selinger 2001-2019
</metadata>
<g transform="translate(0.000000,1080.000000) scale(0.100000,-0.100000)"
fill="#000000" stroke="none">
<path d="M1542 3731 c2 -4 81 -121 177 -259 95 -138 173 -254 172 -259 0 -4
-80 -122 -176 -261 -96 -139 -175 -257 -175 -262 0 -7 1320 -10 3865 -10 2126
0 3865 3 3865 6 0 3 -40 63 -88 132 -98 141 -255 371 -265 388 -4 6 16 44 44
85 28 41 90 130 137 199 47 69 105 153 130 188 l44 62 -3867 0 c-2180 0 -3865
-4 -3863 -9z m836 -159 c5 -46 -12 -62 -64 -62 -23 0 -46 -5 -50 -11 -7 -12
-7 -62 2 -427 l6 -243 -53 3 -54 3 -2 55 c-1 30 -2 182 -2 337 l-1 282 -57 3
-58 3 3 40 c2 22 6 43 9 48 2 4 75 6 161 5 l157 -3 3 -33z m307 14 c50 -33 58
-66 67 -286 5 -113 7 -244 5 -292 -4 -77 -8 -92 -32 -124 -36 -48 -85 -67
-153 -62 -56 5 -91 25 -126 72 -20 26 -21 40 -21 319 0 275 1 294 20 327 31
52 77 72 152 67 35 -3 74 -12 88 -21z m255 -314 c5 -358 4 -351 57 -352 48 0
51 22 51 358 1 172 4 317 7 322 3 6 25 10 49 10 l43 0 7 -327 7 -326 -23 -45
c-34 -67 -66 -87 -143 -87 -69 0 -99 15 -139 69 -20 26 -21 42 -24 358 -1 183
0 338 3 345 3 10 19 13 52 11 l48 -3 5 -333z m540 320 c54 -27 74 -71 78 -177
5 -115 -9 -168 -58 -217 l-37 -38 49 -122 c68 -172 75 -197 57 -209 -21 -13
-85 -11 -96 4 -6 6 -34 81 -63 165 -29 83 -57 152 -63 152 -6 0 -8 -60 -6
-162 l4 -163 -52 -3 c-29 -2 -53 -2 -53 0 -5 33 -11 744 -6 762 6 26 7 26 109
26 77 0 110 -4 137 -18z m261 -77 c5 -95 1 -661 -6 -682 -3 -8 -21 -12 -52
-10 l-48 2 -2 385 c-1 285 2 387 10 392 7 5 30 7 52 6 l40 -3 6 -90z m315 79
c45 -21 73 -70 76 -130 l3 -49 -52 -3 -53 -3 0 35 c0 44 -23 68 -63 64 -23 -2
-33 -10 -42 -33 -18 -44 -4 -79 75 -199 116 -176 146 -247 134 -321 -3 -25
-13 -52 -20 -60 -8 -7 -14 -18 -14 -23 0 -5 -9 -17 -21 -28 -32 -28 -156 -27
-196 2 -41 31 -64 75 -70 138 -5 52 -5 55 19 61 14 4 38 5 54 3 26 -3 29 -8
37 -53 10 -60 21 -75 56 -75 37 0 51 17 51 62 0 45 -27 102 -105 217 -72 107
-93 148 -106 211 -23 110 46 200 154 200 27 0 64 -7 83 -16z m279 4 c3 -3 16
-65 30 -139 29 -163 66 -342 71 -348 2 -2 5 -2 7 0 4 5 62 308 78 404 6 39 16
76 22 84 14 17 105 10 118 -10 5 -8 9 -135 10 -284 0 -148 1 -315 2 -370 l2
-100 -44 -3 c-28 -2 -47 1 -52 9 -4 7 -7 118 -7 246 0 129 -1 236 -4 238 -2 2
-23 -102 -47 -233 -24 -130 -45 -243 -47 -250 -2 -8 -16 -12 -36 -10 l-33 3
-51 255 -52 255 -3 -255 -4 -255 -45 0 -45 0 -3 379 c-1 265 1 382 9 386 12 8
116 6 124 -2z m872 -14 c50 -36 67 -87 66 -195 0 -82 -4 -105 -24 -145 -33
-65 -65 -87 -139 -92 l-60 -4 3 -122 c2 -66 2 -138 -1 -158 l-5 -38 -48 0 -49
0 0 383 c0 211 3 387 7 391 5 4 56 6 115 4 89 -2 111 -6 135 -24z m234 -219
c4 -132 7 -284 8 -337 l1 -98 79 0 c84 0 91 -4 91 -54 0 -41 -17 -46 -151 -46
l-126 0 -6 68 c-8 88 -8 677 -1 697 5 12 18 15 53 13 l46 -3 6 -240z m469 223
c5 -13 16 -79 25 -148 8 -69 29 -227 46 -353 17 -125 29 -234 25 -242 -3 -10
-19 -15 -45 -15 -48 0 -56 11 -65 95 -13 108 -11 105 -71 105 l-53 0 -12 -87
c-6 -49 -13 -94 -15 -100 -5 -14 -91 -18 -99 -5 -3 5 2 53 10 108 8 54 19 135
25 179 5 44 11 86 14 93 2 7 7 34 10 60 17 134 45 314 50 322 3 6 38 10 76 10
63 0 70 -2 79 -22z m184 13 c3 -5 21 -84 40 -176 30 -146 46 -203 46 -168 0
22 59 334 65 343 10 16 92 12 98 -4 3 -8 -7 -65 -22 -128 -79 -318 -85 -350
-91 -498 l-5 -145 -45 0 c-55 0 -58 8 -59 156 -1 95 -8 133 -61 348 -33 133
-60 251 -60 261 0 17 7 20 44 20 25 0 47 -4 50 -9z m526 -9 c44 -22 69 -66 72
-128 l3 -49 -50 0 -50 0 -3 37 c-4 45 -21 60 -64 56 -25 -2 -35 -9 -42 -29
-16 -46 2 -91 93 -232 99 -154 127 -224 116 -292 -3 -25 -12 -51 -18 -58 -7
-7 -17 -22 -23 -32 -39 -70 -205 -53 -253 26 -25 41 -37 124 -21 144 15 18 81
20 98 3 7 -7 12 -29 12 -49 0 -42 21 -69 54 -69 32 0 46 19 46 62 0 46 -26
100 -110 228 -79 120 -100 169 -100 233 0 102 60 167 154 167 29 0 66 -8 86
-18z m448 -20 c5 -47 -12 -62 -67 -62 l-46 0 0 -337 0 -338 -52 -3 -53 -3 -2
243 c0 134 -2 248 -3 253 -2 6 -3 49 -4 98 l-1 87 -55 0 -55 0 0 43 c0 24 3
47 7 51 4 3 79 5 167 4 l161 -3 3 -33z m247 28 c3 -5 14 -73 25 -152 10 -79
33 -245 50 -371 17 -125 28 -232 25 -237 -3 -6 -26 -10 -50 -10 -33 0 -45 4
-49 18 -6 18 -25 148 -26 170 0 8 -18 12 -54 12 -61 0 -59 2 -71 -105 -11 -97
-10 -96 -63 -93 l-47 3 3 55 c2 30 7 80 13 110 6 30 12 75 15 100 3 25 9 70
15 100 5 30 11 73 14 95 9 72 36 259 41 288 5 27 7 27 79 27 41 0 76 -4 80
-10z m413 -37 l-3 -48 -52 -3 -53 -3 -2 -337 -3 -337 -46 -3 -46 -3 -6 58 c-4
32 -7 181 -7 331 0 150 -2 278 -5 283 -4 5 -28 9 -55 9 -46 0 -49 2 -55 30 -4
16 -4 39 0 50 6 19 15 20 171 20 l165 0 -3 -47z m168 21 c8 -31 -2 -740 -11
-753 -3 -5 -27 -9 -53 -8 l-47 2 0 380 c0 209 4 386 9 393 5 6 28 12 52 12 39
0 44 -3 50 -26z m318 12 c18 -7 44 -29 56 -47 22 -29 25 -47 30 -178 4 -80 6
-214 6 -297 -1 -150 -1 -151 -30 -188 -37 -50 -85 -69 -154 -64 -56 5 -91 25
-126 72 -20 26 -21 40 -21 319 0 275 1 294 20 327 12 19 36 43 55 52 42 21
118 23 164 4z m296 -8 c5 -13 34 -120 64 -238 l55 -215 0 225 c0 124 0 231 0
238 1 7 17 12 45 12 34 0 46 -4 50 -17 3 -10 5 -172 5 -360 0 -189 2 -347 6
-353 3 -6 3 -19 0 -31 -6 -17 -14 -20 -57 -17 -33 2 -54 8 -59 18 -4 8 -35
123 -69 255 -33 132 -65 244 -70 249 -5 5 -7 -24 -5 -70 14 -290 16 -426 4
-440 -17 -20 -76 -18 -87 4 -11 21 -26 745 -16 755 4 4 34 7 66 7 51 0 60 -3
68 -22z"/>
<path d="M2564 3510 c-12 -4 -24 -16 -28 -26 -16 -42 -2 -529 16 -551 6 -7 23
-13 39 -13 55 0 56 4 51 292 -5 308 -10 326 -78 298z"/>
<path d="M3340 3385 l0 -125 38 0 c60 0 72 21 72 121 0 105 -13 129 -71 129
l-39 0 0 -125z"/>
<path d="M5065 3510 c-2 -4 -5 -62 -6 -131 l-1 -124 29 -3 c18 -2 39 5 54 17
22 18 24 26 24 114 0 62 -4 99 -13 109 -13 16 -80 29 -87 18z"/>
<path d="M8114 3510 c-12 -4 -24 -16 -28 -26 -15 -40 -1 -531 16 -551 6 -7 23
-13 39 -13 56 0 57 4 52 292 -6 308 -11 326 -79 298z"/>
</g>
</svg>
